<?xml version="1.0" encoding="UTF-8" standalone="no"?><!DOCTYPE svg PUBLIC "-//W3C//DTD SVG 1.1//EN" "http://www.w3.org/Graphics/SVG/1.1/DTD/svg11.dtd"><svg width="100%" height="100%" viewBox="0 0 4267 559" version="1.1" xmlns="http://www.w3.org/2000/svg" xmlns:xlink="http://www.w3.org/1999/xlink" xml:space="preserve" xmlns:serif="http://www.serif.com/" style="fill-rule:evenodd;clip-rule:evenodd;stroke-linejoin:round;stroke-miterlimit:2;"><rect id="Mesa-de-trabajo9" serif:id="Mesa de trabajo9" x="0" y="-0" width="4266.667" height="558.333" style="fill:none;"/><clipPath id="_clip1"><rect x="0" y="-0" width="4266.667" height="558.333"/></clipPath><g clip-path="url(#_clip1)"><g id="Ungrouped-Title" serif:id="Ungrouped Title"><g><g><g><path d="M194.649,518.454c44.917,23.601 95.164,35.782 151.501,35.782c56.337,0 107.345,-12.181 152.263,-35.782c44.917,-23.601 79.938,-57.098 105.823,-98.971c25.123,-41.872 38.066,-89.835 38.066,-142.366c0,-52.531 -12.942,-100.493 -38.066,-142.366c-25.885,-41.872 -60.905,-75.37 -105.823,-98.971c-44.917,-23.601 -95.925,-35.782 -152.263,-35.782c-56.337,0 -106.584,12.181 -151.501,35.782c-44.917,23.601 -80.699,57.098 -105.823,98.971c-25.885,41.872 -38.827,89.835 -38.827,142.366c0,52.531 12.942,100.493 38.827,142.366c25.123,41.872 60.905,75.37 105.823,98.971Zm224.587,-108.106c-22.078,12.942 -46.44,19.033 -73.086,19.033c-26.646,0 -51.008,-6.091 -73.086,-19.033c-22.078,-12.942 -38.827,-30.453 -51.769,-54.053c-12.942,-22.839 -19.033,-49.485 -19.033,-79.177c0,-29.691 6.091,-56.337 19.033,-79.938c12.942,-22.839 29.691,-40.35 51.769,-53.292c22.078,-12.942 46.44,-19.033 73.086,-19.033c26.646,0 51.008,6.091 73.086,19.033c22.078,12.942 38.827,30.453 51.769,53.292c12.942,23.601 19.033,50.247 19.033,79.938c0,29.691 -6.091,56.337 -19.033,79.177c-12.942,23.601 -29.691,41.111 -51.769,54.053Z" style="fill:#fff;fill-rule:nonzero;"/></g></g></g><g><g><g><path d="M1172.937,102.777c-19.033,-29.691 -46.44,-52.531 -82.222,-68.518c-35.782,-15.988 -77.654,-23.601 -125.617,-23.601l-243.62,0l0,118.765l234.484,0c31.214,0 54.053,6.852 70.041,20.555c15.988,13.704 23.601,32.736 23.601,57.86c0,25.123 -7.613,44.156 -23.601,57.098c-15.988,13.704 -38.827,20.555 -70.041,20.555l-234.484,0l0,258.085l150.74,0l0,-139.32l92.88,0c47.963,0 89.835,-8.374 125.617,-24.362c35.782,-15.988 63.189,-38.066 82.222,-67.757c19.033,-29.691 28.93,-63.95 28.93,-104.3c0,-40.35 -9.897,-74.609 -28.93,-105.061Z" style="fill:#fff;fill-rule:nonzero;"/></g></g></g><g><g><g><path d="M1705.095,10.658l-422.529,0l0,116.481l422.529,0l0,-116.481Zm0,206.316l-422.529,0l0,112.674l422.529,0l0,-112.674Zm-422.529,210.122l0,116.481l422.529,0l0,-116.481l-422.529,0Z" style="fill:#fff;fill-rule:nonzero;"/></g></g></g><g><g><g><path d="M1794.168,543.578l147.695,0l0,-89.835l-147.695,-188.044l0,277.879Zm359.34,-532.919l0,95.925l147.695,178.909l0,-274.834l-147.695,0Zm0,283.97l-235.246,-283.97l-124.094,0l0,70.802l147.695,178.147l235.246,283.97l124.094,0l0,-62.428l-147.695,-188.044l0,1.523Z" style="fill:#fff;fill-rule:nonzero;"/></g></g></g><g><g><g><path d="M2783.875,376.089c33.498,-15.988 59.382,-38.827 77.654,-67.757c17.51,-28.169 26.646,-61.666 26.646,-100.493c0,-40.35 -9.897,-74.609 -28.93,-105.061c-19.033,-29.691 -46.44,-52.531 -82.222,-68.518c-35.782,-15.988 -77.654,-23.601 -125.617,-23.601l-243.62,0l0,118.765l234.484,0c31.214,0 54.053,6.852 70.041,20.555c15.988,13.704 23.601,32.736 23.601,57.86c0,25.123 -7.613,44.156 -23.601,57.098c-15.988,13.704 -38.827,20.555 -70.041,20.555l-234.484,0l0,258.085l150.74,0l0,-141.604l82.222,0l96.687,141.604l161.398,0l-114.958,-167.489Z" style="fill:#fff;fill-rule:nonzero;"/></g></g></g><g><g><g><rect x="2971.158" y="10.658" width="150.74" height="532.919" style="fill:#fff;fill-rule:nonzero;"/></g></g></g><g><g><g><path d="M3591.629,211.645l-266.46,0l0,-89.074l-133.23,0l0,89.074l133.23,132.468l266.46,0l0,89.074l133.23,0l0,-89.074c0,-79.177 -53.292,-132.468 -133.23,-132.468Zm133.23,-199.464l-288.538,0l-72.325,110.39l360.862,0l0,-110.39Zm-532.919,531.397l288.538,0l72.325,-110.39l-360.862,0l0,110.39Z" style="fill:#fff;fill-rule:nonzero;"/></g></g></g><g><g><g><path d="M4216.667,10.658l-422.529,0l0,116.481l422.529,0l0,-116.481Zm0,206.316l-422.529,0l0,112.674l422.529,0l0,-112.674Zm-422.529,210.122l0,116.481l422.529,0l0,-116.481l-422.529,0Z" style="fill:#fff;fill-rule:nonzero;"/></g></g></g></g></g></svg>